<?xml version="1.0" encoding="utf-8"?>
<svg id="Layer_1" data-name="Layer 1" xmlns="http://www.w3.org/2000/svg" viewBox="0 0 48 48">
  <defs>
    <style>.cls-1{fill:#fff;}</style>
  </defs>
  <title>ic_rooftop</title>
  <g id="Symbols">
    <g id="Icons_normal_ic_rooftop" data-name="Icons/normal/ic_rooftop">
      <path id="Combined-Shape" class="cls-1" d="M23,5h2v5h1v1h1v1h4v2H30V30h1v1h5v2H34V43H14V33H12V31h5V30h1V14H17V12h4V11h1V10h1ZM21,15v2h2V15Zm4,0v2h2V15Zm-4,4v2h2V19Zm4,0v2h2V19Zm-4,4v2h2V23Zm4,0v2h2V23Zm-4,4v2h2V27Zm4,0v2h2V27Zm-8,7v2h2V34Zm4,0v2h2V34Zm4,0v2h2V34Zm4,0v2h2V34ZM17,38v2h2V38Zm4,0v2h2V38Zm4,0v2h2V38Zm4,0v2h2V38Z" />
    </g>
  </g>
</svg>