<?xml version="1.0" encoding="UTF-8"?><svg xmlns="http://www.w3.org/2000/svg" viewBox="0 0 55 27.37"><defs><style>.j{fill:#296cd1;}</style></defs><g id="a"/><g id="b"><g id="c"><g><g><path id="d" class="j" d="M45.33,10.26v3.38h0c0,1.85-1.79,3.29-4.01,3.29s-4.01-1.43-4.01-3.29h0v-3.38h-3.41v3.32h0v.06h0c0,4.19,3.35,6.25,7.42,6.25s7.42-2.06,7.42-6.25h0v-3.38h-3.41Z"/><path id="e" class="j" d="M11.42,13.59h0c0,1.85-1.79,3.33-4.01,3.33s-4.01-1.48-4.01-3.33H0v.04C0,17.83,3.32,19.89,7.42,19.89s7.42-2.11,7.42-6.29h-3.41Z"/><path id="f" class="j" d="M11.42,6.25h0c0-1.85-1.79-3.29-4.01-3.29s-4.01,1.43-4.01,3.29H0C0,2.06,3.32,0,7.42,0s7.42,2.06,7.42,6.25h-3.41Z"/><path id="g" class="j" d="M28.38,6.25h0c0-1.85-1.79-3.29-4.01-3.29s-4.01,1.43-4.01,3.29h-3.41c0-4.19,3.32-6.25,7.42-6.25s7.42,2.06,7.42,6.25h-3.41Z"/><path id="h" class="j" d="M45.33,6.25h0c0-1.85-1.79-3.29-4.01-3.29s-4.01,1.43-4.01,3.29h-3.41c0-4.19,3.32-6.25,7.42-6.25s7.42,2.06,7.42,6.25h-3.41Z"/><path class="j" d="M31.79,13.64c0,4.19-3.41,6.25-7.42,6.25s-7.42-2.1-7.42-6.29h3.41c0,1.84,1.62,3.33,4.01,3.33s4.01-1.43,4.01-3.29-1.51-3.38-4.01-3.38H7.42v-2.96H24.37c5.26,0,7.42,2.94,7.42,6.34Z"/><path id="i" class="j" d="M55,2.7c0,1.44-1.17,2.61-2.61,2.61s-2.61-1.17-2.61-2.61S50.95,.09,52.39,.09s2.61,1.17,2.61,2.61"/></g><g><path class="j" d="M3.49,22.02h2.08c1.23,0,2,.7,2,1.78,0,1.18-.95,1.8-2.11,1.8h-1.05v1.69h-.93v-5.26Zm2,2.74c.7,0,1.14-.39,1.14-.96,0-.62-.44-.94-1.14-.94h-1.08v1.9h1.08Z"/><path class="j" d="M8.52,22.02h.93v4.42h2.77v.84h-3.69v-5.26Z"/><path class="j" d="M15.04,21.98h.86l2.32,5.3h-.98l-.53-1.27h-2.49l-.54,1.27h-.95l2.32-5.3Zm1.32,3.21l-.91-2.11-.9,2.11h1.81Z"/><path class="j" d="M19.73,22.88h-1.67v-.86h4.27v.86h-1.67v4.41h-.93v-4.41Z"/><path class="j" d="M23.31,22.02h3.92v.84h-2.99v1.44h2.66v.84h-2.66v2.14h-.93v-5.26Z"/><path class="j" d="M28.01,24.65c0-1.48,1.14-2.72,2.76-2.72s2.75,1.23,2.75,2.72-1.14,2.72-2.76,2.72-2.75-1.23-2.75-2.72Zm4.54,0c0-1.02-.74-1.87-1.79-1.87s-1.78,.83-1.78,1.87,.74,1.87,1.79,1.87,1.78-.83,1.78-1.87Z"/><path class="j" d="M34.64,22.02h2.35c1.23,0,1.96,.66,1.96,1.68,0,.86-.52,1.38-1.26,1.59l1.42,1.99h-1.09l-1.31-1.84h-1.14v1.84h-.93v-5.26Zm2.28,2.61c.66,0,1.08-.35,1.08-.9s-.41-.87-1.09-.87h-1.35v1.77h1.35Z"/><path class="j" d="M40.07,22.02h.99l1.6,2.49,1.6-2.49h.99v5.26h-.93v-3.78l-1.66,2.48h-.03l-1.65-2.47v3.76h-.91v-5.26Z"/></g></g></g></g></svg>