<svg width="214" height="108" xmlns="http://www.w3.org/2000/svg">
 <style type="text/css">.st0{fill:#1857B2;}</style>

 <g>
  <title>background</title>
  <rect fill="none" id="canvas_background" height="110" width="216" y="-1" x="-1"/>
 </g>
 <g>
  <title>Layer 1</title>
  <g id="svg_1">
   <path id="svg_2" d="m1.6,80.7l3.2,0l0,15.6c0,2.3 0.2,3.8 0.7,4.6c0.4,0.8 1.1,1.4 2.1,1.8c0.9,0.4 2,0.6 3.2,0.6c1.1,0 2.1,-0.2 3,-0.6c0.9,-0.4 1.5,-1 1.9,-1.9c0.4,-0.9 0.6,-2.7 0.6,-5.6l0,-14.5l2.9,0l0,15.3c0,2.8 -0.3,4.8 -1,6s-1.6,2.1 -2.8,2.7s-2.8,1 -4.6,1c-1.7,0 -3.3,-0.3 -4.8,-0.8s-2.5,-1.4 -3.2,-2.5c-0.7,-1.1 -1.1,-3 -1.1,-5.7l0,-16l-0.1,0z" class="st0"/>
   <path id="svg_3" d="m38.9,102.1l0,2.9l-15.8,0l0,-2.9l12.1,-18.7l-11.2,0l0,-2.7l14.7,0l0,2.7l-12,18.7l12.2,0z" class="st0"/>
   <path id="svg_4" d="m54.3,92.2c1.9,0.5 3.3,1.3 4.2,2.4c0.9,1.1 1.3,2.4 1.3,3.8c0,1.2 -0.3,2.3 -0.9,3.3c-0.6,1 -1.4,1.8 -2.5,2.5c-1.1,0.6 -3,0.9 -5.7,0.9l-7.3,0l0,-24.3l6.5,0c2.9,0 4.9,0.2 5.9,0.6c1,0.4 1.8,1 2.3,1.9c0.5,0.8 0.8,1.7 0.8,2.7c0,1.1 -0.3,2.2 -1,3.3c-0.7,1.1 -1.9,2.1 -3.6,2.9zm-7.7,-0.9l3,0c1.6,0 2.7,-0.2 3.5,-0.6c0.8,-0.4 1.4,-1 1.9,-1.8s0.7,-1.6 0.7,-2.4c0,-0.9 -0.4,-1.7 -1.1,-2.3c-0.7,-0.6 -2,-1 -3.9,-1l-4.1,0l0,8.1zm0,11.3l4.5,0c2.1,0 3.6,-0.4 4.3,-1.2c0.8,-0.8 1.2,-1.7 1.2,-2.8c0,-0.9 -0.3,-1.7 -0.8,-2.4c-0.5,-0.7 -1.3,-1.3 -2.2,-1.8c-1,-0.5 -2.5,-0.7 -4.6,-0.7l-2.3,0l0,8.9l-0.1,0z" class="st0"/>
   <path id="svg_5" d="m64.6,105l0,-24.3l13.8,0l0,2.7l-10.6,0l0,7.7l9.2,0l0,2.4l-9.2,0l0,8.9l11.4,0l0,2.7l-14.6,0l0,-0.1z" class="st0"/>
   <path id="svg_6" d="m87,105l-3.2,0l0,-24.3l3.2,0l0,11.6l10.2,-11.6l3.6,0l-10,11.4l11.6,12.9l-4,0l-11.4,-12.7l0,12.7z" class="st0"/>
   <path id="svg_7" d="m109.1,105l-3.1,0l0,-24.3l3.2,0l0,24.3l-0.1,0z" class="st0"/>
   <path id="svg_8" d="m114,99.5l3.2,0l0,0.2c0,1.3 0.5,2.3 1.4,2.8c1,0.5 2.2,0.8 3.8,0.8c1.4,0 2.5,-0.4 3.5,-1.2s1.4,-1.9 1.4,-3.2c0,-1.1 -0.4,-1.9 -1.2,-2.6c-0.8,-0.7 -2,-1.3 -3.7,-2l-1.3,-0.5c-1.7,-0.7 -3,-1.4 -3.9,-2.1c-0.9,-0.7 -1.5,-1.5 -1.9,-2.3c-0.4,-0.8 -0.6,-1.8 -0.6,-2.8c0,-1.8 0.7,-3.4 2,-4.7s3.3,-1.9 6.1,-1.9c2.5,0 4.3,0.5 5.4,1.4c1,0.9 1.5,2 1.5,3.3l0,0.2l-3.1,0l0,-0.2c0,-0.4 -0.2,-0.8 -0.5,-1.2c-0.3,-0.4 -0.8,-0.7 -1.4,-0.8c-0.6,-0.2 -1.3,-0.3 -2.1,-0.3c-1.6,0 -2.7,0.4 -3.5,1.2c-0.7,0.8 -1.1,1.7 -1.1,2.7c0,0.7 0.2,1.3 0.5,1.9c0.4,0.6 0.8,1.1 1.5,1.5c0.6,0.4 1.7,0.9 3.2,1.6l1.5,0.6c2.4,1 4,2.1 4.8,3.3c0.8,1.1 1.2,2.4 1.2,3.7c0,1.2 -0.3,2.4 -1,3.6c-0.6,1.1 -1.5,2 -2.7,2.6c-1.2,0.6 -2.7,0.9 -4.6,0.9c-1.8,0 -3.3,-0.2 -4.5,-0.6c-1.2,-0.4 -2.1,-1.1 -2.8,-2.1c-0.6,-1 -0.9,-2.1 -0.9,-3.3l0,-0.5l-0.2,0z" class="st0"/>
   <path id="svg_9" d="m141.3,105l0,-21.9l-8.3,0l0,-2.4l19.6,0l0,2.4l-8.1,0l0,21.9l-3.2,0z" class="st0"/>
   <path id="svg_10" d="m155.7,105l-2.9,0l10,-24.3l3.2,0l9.2,24.3l-3.4,0l-2.5,-6.7l-10.7,0l-2.9,6.7zm3.7,-9.1l8.8,0l-4.3,-11.3l-4.5,11.3z" class="st0"/>
   <path id="svg_11" d="m181.6,105l-2.9,0l0,-24.3l3.2,0l11.1,17.3l1,1.9l-0.1,-1.9l0,-17.3l2.9,0l0,24.3l-3.1,0l-11.1,-17.4l-1,-2l0.1,2l0,17.4l-0.1,0z" class="st0"/>
  </g>
  <g id="svg_12">
   <path id="svg_13" d="m167.2,35.3l0,11.3l0,0l0,0c0,6.2 -5.9,11.2 -13.3,11.2c-7.3,0 -13.3,-5 -13.3,-11.2l0,0l0,-11.3l-11.6,0l0,11.3c0,0 0,0 0,0c0,0 0,0 0,0.1l0,0.1l0,0c0.1,11.6 11.2,20.9 24.8,20.9c13.7,0 24.7,-9.3 24.8,-20.9l0,0l0,-11.5l-11.4,0z" class="st0"/>
   <path id="svg_14" d="m27,22.3c0,0 0,0 0,0c0,-6.2 5.9,-11.3 13.3,-11.3c7.3,0 13.3,5 13.3,11.2c0,0 0,0 0,0l11.6,0c0,0 0,0 0,0c0,-11.6 -11.1,-21.1 -24.8,-21.1c-13.7,0 -24.8,9.4 -24.8,21.1c0,0 0,0 0,0l11.4,0l0,0.1z" class="st0"/>
   <path id="svg_15" d="m53.6,46.6c0,0 0,0 0,0c0,6.2 -5.9,11.3 -13.3,11.3c-7.3,0 -13.3,-5 -13.3,-11.2c0,0 0,0 0,0l-11.6,0c0,0 0,0 0,0c0,11.6 11.1,21.1 24.8,21.1c13.7,0 24.8,-9.4 24.8,-21.1c0,0 0,0 0,0l-11.4,0l0,-0.1z" class="st0"/>
   <path id="svg_16" d="m83.9,22.3c0,0 0,0 0,0c0,-6.2 5.9,-11.3 13.3,-11.3c7.3,0 13.3,5 13.3,11.2c0,0 0,0 0,0l11.5,0c0,0 0,0 0,0c0,-11.6 -11.1,-21.1 -24.9,-21.1c-13.7,0 -24.8,9.4 -24.8,21.1c0,0 0,0 0,0l11.6,0l0,0.1z" class="st0"/>
   <path id="svg_17" d="m97.1,25.5l-56.3,0l0,9.8l56.3,0c7.3,0 13.3,5 13.3,11.2c0,0 0,0 0,0l0,0c0,0 0,0 0,0c0,6.2 -5.9,11.2 -13.3,11.2c-7.3,0 -13.3,-5 -13.3,-11.2c0,0 0,0 0,0l0,0c0,0 0,0 0,0c0,0 0,0 0,-0.1l-11.6,0c0,0 0,0 0,0.1c0,0 0,0 0,0l0,0c0,0 0,0 0,0c0,11.6 11.1,21.1 24.8,21.1c13.7,0 24.8,-9.4 24.8,-21.1c0,0 0,0 0,0l0,0l0,0c0.2,-11.5 -10.9,-21 -24.7,-21" class="st0"/>
   <path id="svg_18" d="m153.9,11.1c7.3,0 13.3,5 13.3,11.2l11.6,0l0,-0.4l0,0c-0.3,-11.4 -11.3,-20.6 -24.8,-20.6c-13.5,0 -24.5,9.2 -24.8,20.6l0,0l0,0.4c0,0 0,0 0,0.1l11.6,0c-0.2,-6.3 5.8,-11.3 13.1,-11.3" class="st0"/>
   <path id="svg_19" d="m213,24.5c0,7.4 -6,13.4 -13.4,13.4s-13.4,-6 -13.4,-13.4s6,-13.4 13.4,-13.4s13.4,6 13.4,13.4" class="st0"/>
  </g>
 </g>
</svg>