<?xml version="1.0" encoding="utf-8"?>
<!-- Generator: Adobe Illustrator 23.0.1, SVG Export Plug-In . SVG Version: 6.00 Build 0)  -->
<svg version="1.1" id="Слой_1" xmlns="http://www.w3.org/2000/svg" xmlns:xlink="http://www.w3.org/1999/xlink" x="0px" y="0px"
	 viewBox="0 0 1190.55 841.89" style="enable-background:new 0 0 1190.55 841.89;" xml:space="preserve">
<style type="text/css">
	.st0{fill:#010101;}
	.st1{fill:#FFFFFF;}
</style>
<circle class="st0" cx="573.29" cy="420.94" r="367.5"/>
<g>
	<path class="st1" d="M345.28,245.18c2.01,2.9,3.33,5.99,3.98,9.27c0.65,3.28,0.6,6.67-0.15,10.17c-0.75,3.5-2.18,6.9-4.29,10.2
		c-2.22,3.47-4.81,6.25-7.77,8.34c-2.96,2.09-6.09,3.48-9.41,4.18c-3.31,0.7-6.69,0.69-10.14-0.03c-3.45-0.71-6.79-2.11-10.04-4.19
		l-39.26-25.14l6.85-10.7l38.47,24.63c1.89,1.21,3.83,2.06,5.84,2.56c2.01,0.5,3.96,0.61,5.84,0.32c1.89-0.28,3.67-0.96,5.36-2.04
		c1.68-1.07,3.15-2.58,4.39-4.52c2.33-3.64,3.08-7.28,2.25-10.92c-0.83-3.64-3.37-6.81-7.61-9.53l-38.91-24.91l6.85-10.7
		l39.71,25.42C340.59,239.75,343.27,242.27,345.28,245.18z"/>
	<path class="st1" d="M394.18,215.22l-6.41-8.86l-2.41-61.21l-26.38,19.07l-6.52-9.02l38.63-27.94l6.09,8.42l2.42,61.22l27.48-19.87
		l6.83,9.44L394.18,215.22z"/>
	<path class="st1" d="M527.25,130.43c0.8,3.05,0.96,5.97,0.5,8.77c-0.46,2.8-1.41,5.34-2.84,7.63c-1.43,2.29-3.27,4.24-5.53,5.84
		c-2.26,1.6-4.78,2.77-7.55,3.49l-30.99,8.09l-18.47-70.71l28.24-7.38c3.59-0.94,6.9-1.29,9.92-1.07c3.02,0.22,5.69,0.94,7.99,2.14
		c2.3,1.21,4.24,2.87,5.81,4.99c1.57,2.12,2.72,4.61,3.47,7.45c0.35,1.35,0.56,2.75,0.6,4.18c0.05,1.44-0.14,2.88-0.55,4.32
		c-0.42,1.45-1.1,2.91-2.05,4.39c-0.95,1.48-2.27,2.87-3.95,4.18l0.11,0.41c1.97,0.07,3.8,0.49,5.49,1.28
		c1.69,0.79,3.19,1.81,4.49,3.06c1.3,1.25,2.41,2.65,3.32,4.18C526.16,127.22,526.82,128.8,527.25,130.43z M505.19,103.74
		c-0.67-2.57-2.11-4.49-4.33-5.76c-2.21-1.27-5.21-1.41-9.01-0.42l-14.32,3.74l4.8,18.39l14.32-3.74c3.79-0.99,6.33-2.63,7.61-4.92
		C505.56,108.75,505.86,106.32,505.19,103.74z M514.57,132.98c-0.34-1.29-0.88-2.46-1.63-3.54c-0.75-1.07-1.7-1.94-2.85-2.62
		c-1.15-0.68-2.52-1.11-4.09-1.32c-1.57-0.2-3.31-0.06-5.2,0.44l-15.75,4.11l5.17,19.81l15.75-4.11c1.9-0.5,3.48-1.2,4.76-2.11
		c1.28-0.91,2.26-1.95,2.94-3.1c0.67-1.15,1.08-2.38,1.21-3.68C515,135.56,514.9,134.27,514.57,132.98z"/>
	<path class="st1" d="M584.97,148.61l9.08-72.51l48.55,6.08l-1.43,11.46l-35.94-4.5l-2.37,18.96l30.63,3.83l-1.38,11.04l-30.63-3.83
		l-2.45,19.59l35.94,4.5l-1.43,11.46L584.97,148.61z"/>
	<path class="st1" d="M721.59,192.43l-1.45-39.68l-17.04,6.29l-9.81,17.73l-11.03-6.1l35.37-63.95l11.12,6.15l-17.12,30.97
		l0.13,0.19l18.02-7.19l24.98-9.58l13.23,7.32l-35.72,13.6l2.47,51.52L721.59,192.43z"/>
	<path class="st1" d="M770.19,233.64l54.14-49.09l8.53,9.41l-54.14,49.08L770.19,233.64z"/>
	<path class="st1" d="M880.16,303.44c0.59-3.64,0.61-7.06,0.05-10.27c-0.56-3.2-1.38-6.02-2.47-8.44c-1.84-4.09-3.96-6.63-6.36-7.62
		c-2.4-0.99-4.79-0.96-7.15,0.1c-1.41,0.63-2.44,1.46-3.09,2.48c-0.66,1.02-1.02,2.35-1.08,3.99c-0.07,1.64,0.11,3.58,0.55,5.84
		s1.04,4.93,1.82,8.02c0.64,2.62,1.12,5.27,1.45,7.96c0.32,2.69,0.18,5.28-0.42,7.77c-0.61,2.49-1.79,4.8-3.56,6.94
		c-1.77,2.13-4.37,3.97-7.82,5.52c-3.26,1.46-6.45,2.09-9.57,1.88c-3.13-0.21-6.07-1.07-8.82-2.6c-2.76-1.52-5.26-3.6-7.52-6.23
		c-2.26-2.63-4.14-5.64-5.67-9.02c-1.98-4.41-3.35-9.22-4.12-14.43c-0.77-5.22-0.29-10.6,1.44-16.13l12.14,2.95
		c-1.39,4.08-1.89,8.06-1.48,11.95c0.4,3.89,1.44,7.68,3.1,11.38c1.66,3.7,3.77,6.34,6.32,7.92c2.55,1.58,5.33,1.69,8.33,0.35
		c2.68-1.21,4.26-3.12,4.73-5.75c0.47-2.63,0.1-6.13-1.09-10.5c-0.91-3.05-1.65-6.11-2.23-9.19c-0.58-3.08-0.67-6.01-0.27-8.8
		c0.4-2.79,1.45-5.35,3.16-7.69c1.71-2.34,4.42-4.34,8.12-6.01c3.32-1.49,6.5-2.15,9.54-1.96c3.04,0.18,5.85,0.97,8.43,2.37
		c2.58,1.39,4.88,3.27,6.9,5.63c2.02,2.36,3.67,4.98,4.96,7.85c1.92,4.28,3.24,8.5,3.96,12.67c0.72,4.17,0.68,8.35-0.12,12.54
		L880.16,303.44z"/>
	<path class="st1" d="M906.53,407.17l-61.63,3.65l-0.75-12.68l61.63-3.65l-1.2-20.23l11.32-0.67l3.15,53.25l-11.32,0.67
		L906.53,407.17z"/>
	<path class="st1" d="M825.9,522.88l17.16-0.54l8.3-25.79L837.77,486l4.09-12.69l61.1,48.69l-3.15,9.8l-78.03,3.89L825.9,522.88z
		 M870.08,522l15.77,0l0.1-0.3l-12.54-9l-12.88-9.33l-6.02,18.69L870.08,522z"/>
	<path class="st1" d="M767.02,612.21l40.48,5.34l19.28,3.29l0.13-0.31l-38.15-33.26l8.35-9.58l55.08,48.02l-7.73,8.86l-36.88-4.99
		l-23.02-3.63l0.02,0.29l38.15,33.26l-8.35,9.58l-55.08-48.03L767.02,612.21z"/>
	<path class="st1" d="M714.35,674.84c-1.74-2.18-3.74-3.42-6.01-3.71c-2.27-0.3-4.5,0.11-6.68,1.22c-2.81,1.43-4.62,3.54-5.44,6.32
		c-0.82,2.78-0.45,5.71,1.11,8.78c1.53,3.01,3.6,4.95,6.21,5.84c2.61,0.88,5.47,0.53,8.59-1.06l5.15-2.62l4.48,8.8l-4.77,2.43
		c-3.18,1.62-5.17,3.69-5.97,6.22c-0.79,2.52-0.57,5,0.66,7.44c1.27,2.5,3.17,4.1,5.69,4.82c2.53,0.72,5.04,0.44,7.53-0.83
		c1.81-0.92,3.25-2.4,4.34-4.44c1.08-2.04,1.22-4.55,0.42-7.52l11.34-3.65c0.74,2.69,1.01,5.34,0.81,7.95
		c-0.2,2.62-0.83,5.05-1.87,7.32c-1.05,2.26-2.43,4.3-4.14,6.11c-1.71,1.81-3.72,3.31-6.03,4.48c-3.43,1.75-6.65,2.75-9.65,3.03
		c-3,0.27-5.74-0.01-8.2-0.84c-2.46-0.83-4.64-2.14-6.53-3.92c-1.89-1.79-3.45-3.9-4.69-6.33c-1.17-2.31-1.76-5.08-1.75-8.3
		c0.01-3.23,1.08-6.36,3.22-9.41c-4.01,0-7.4-0.99-10.16-2.96c-2.77-1.97-4.79-4.2-6.06-6.7c-1.52-3-2.41-5.98-2.67-8.95
		c-0.26-2.97,0.08-5.82,1.02-8.53c0.94-2.71,2.43-5.22,4.48-7.52c2.05-2.3,4.64-4.24,7.75-5.83c2.12-1.08,4.37-1.87,6.74-2.38
		c2.37-0.51,4.75-0.61,7.15-0.31s4.76,1.1,7.11,2.4c2.35,1.3,4.54,3.24,6.56,5.83L714.35,674.84z"/>
	<path class="st1" d="M584.69,716.12c-0.48-4.1-0.24-7.69,0.71-10.76c0.95-3.07,2.39-5.67,4.33-7.8c1.94-2.13,4.21-3.78,6.82-4.97
		c2.61-1.18,5.31-1.94,8.09-2.26c2.92-0.34,5.74-0.19,8.46,0.45c2.72,0.64,5.16,1.78,7.32,3.43c2.17,1.65,3.98,3.8,5.45,6.45
		c1.47,2.65,2.42,5.78,2.83,9.4c0.25,2.15,0.24,4.5-0.03,7.03c-0.27,2.53-0.87,4.98-1.79,7.34l-15.12,39.17l-13.35,1.55l12.16-31.85
		l-0.23-0.18c-1.41,0.59-2.92,0.97-4.52,1.16c-2.85,0.33-5.5,0.11-7.95-0.66c-2.45-0.77-4.6-1.99-6.45-3.64
		c-1.85-1.65-3.35-3.66-4.51-6.03C585.77,721.58,585.03,718.97,584.69,716.12z M597.02,713.95c0.44,3.75,1.73,6.44,3.89,8.06
		c2.16,1.62,4.6,2.27,7.31,1.95c2.5-0.29,4.65-1.49,6.45-3.6c1.8-2.11,2.48-5.01,2.06-8.69c-0.43-3.69-1.64-6.4-3.64-8.14
		c-2-1.74-4.49-2.44-7.48-2.09c-2.64,0.31-4.84,1.55-6.6,3.72C597.26,707.33,596.59,710.26,597.02,713.95z"/>
	<path class="st1" d="M482.49,699.75c0.79-3.27,2.1-6.05,3.92-8.34c1.82-2.3,3.91-4.08,6.26-5.34c2.36-1.26,4.94-2.04,7.75-2.33
		c2.81-0.29,5.57-0.11,8.29,0.55c2.72,0.66,5.24,1.76,7.57,3.3c2.33,1.54,4.25,3.41,5.77,5.61c1.52,2.21,2.56,4.74,3.12,7.62
		c0.56,2.87,0.45,5.94-0.34,9.21l-7.45,30.71c-0.81,3.33-2.12,6.13-3.93,8.39c-1.81,2.26-3.9,4.04-6.27,5.34
		c-2.37,1.3-4.94,2.1-7.71,2.4c-2.77,0.3-5.52,0.12-8.24-0.54c-2.72-0.66-5.26-1.76-7.62-3.31c-2.36-1.55-4.3-3.44-5.81-5.68
		c-1.51-2.24-2.55-4.78-3.12-7.62c-0.57-2.84-0.45-5.93,0.36-9.26L482.49,699.75z M486.83,733.06c-0.8,3.28-0.54,6,0.77,8.16
		c1.31,2.16,3.4,3.59,6.25,4.29c2.86,0.69,5.35,0.37,7.47-0.95c2.12-1.33,3.58-3.63,4.38-6.91l7.31-30.12c0.8-3.28,0.56-6-0.72-8.15
		c-1.28-2.15-3.34-3.58-6.2-4.27c-2.86-0.69-5.36-0.38-7.52,0.94c-2.16,1.32-3.63,3.62-4.43,6.9L486.83,733.06z"/>
	<path class="st1" d="M438.1,656.77l-7.53,12.38l-12.2-7.43l7.53-12.38L438.1,656.77z"/>
	<path class="st1" d="M359.87,614.09c3.21-1.46,6.49-2.21,9.83-2.26c3.34-0.05,6.67,0.6,9.98,1.96c3.32,1.36,6.41,3.37,9.27,6.03
		c3.02,2.81,5.3,5.85,6.82,9.13c1.53,3.28,2.34,6.62,2.44,10c0.1,3.39-0.51,6.71-1.83,9.98c-1.32,3.27-3.29,6.31-5.91,9.13
		l-31.73,34.16l-9.31-8.65l31.09-33.46c1.53-1.64,2.71-3.41,3.56-5.29c0.85-1.89,1.3-3.78,1.36-5.69c0.06-1.91-0.29-3.78-1.05-5.63
		c-0.76-1.85-1.98-3.56-3.67-5.12c-3.17-2.94-6.61-4.33-10.34-4.16c-3.73,0.17-7.31,2.1-10.74,5.79l-31.45,33.85l-9.31-8.65
		l32.09-34.54C353.69,617.74,356.66,615.55,359.87,614.09z"/>
	<path class="st1" d="M339.04,560.68l-9.86,4.74l-60.67-8.44l14.12,29.33l-10.03,4.83l-20.68-42.95l9.37-4.51l60.69,8.43
		l-14.71-30.56l10.5-5.05L339.04,560.68z"/>
</g>
<g>
	<g>
		<path class="st1" d="M361.23,456.54V301.13l142.33-82.82v154.5L361.23,456.54z M372.99,307.9v128.08l118.81-69.89V238.76
			L372.99,307.9z"/>
	</g>
	<g>
		<path class="st1" d="M503.56,623.58l-142.33-82.82V385.35l142.33,83.72V623.58z M372.99,533.99l118.81,69.14V475.8l-118.81-69.89
			V533.99z"/>
	</g>
	<g>
		<path class="st1" d="M785.36,456.54l-142.33-83.72v-154.5l142.33,82.82V456.54z M654.8,366.09l118.8,69.89V307.9l-118.8-69.13
			V366.09z"/>
	</g>
	<g>
		<path class="st1" d="M643.01,623.59l0.02-154.52l142.33-83.72v155.41L643.01,623.59z M654.8,475.8l-0.02,127.35l118.83-69.15
			V405.91L654.8,475.8z"/>
	</g>
	<g>
		<path class="st1" d="M573.3,336.76l-137.9-78.79l137.9-80.24l137.9,80.24L573.3,336.76z M458.94,257.88l114.35,65.33l114.35-65.33
			L573.3,191.34L458.94,257.88z"/>
	</g>
	<g>
		<path class="st1" d="M573.3,664.16l-137.9-80.24l137.9-78.78l137.89,78.78L573.3,664.16z M458.94,584.01l114.35,66.54
			l114.34-66.54L573.3,518.68L458.94,584.01z"/>
	</g>
</g>
<circle class="st1" cx="277.39" cy="420.94" r="18.46"/>
</svg>
