<?xml version="1.0" encoding="utf-8"?>
<svg id="Layer_1" data-name="Layer 1" xmlns="http://www.w3.org/2000/svg" viewBox="0 0 48 48">
  <defs>
    <style>.cls-1{fill:#fff;}</style>
  </defs>
  <title>ic_shopping</title>
  <g id="Symbols">
    <g id="Icons_normal_ic_shopping" data-name="Icons/normal/ic_shopping">
      <g id="Group">
        <path id="Combined-Shape" class="cls-1" d="M20,15V13a.94.94,0,0,1,1-1h4a5,5,0,0,1,10,0h4a.94.94,0,0,1,1,1V35a.94.94,0,0,1-1,1H31.7L26.3,19.4a1.17,1.17,0,0,0-1.3-.8l-2.3.4A6,6,0,0,0,20,15Z" />
        <path id="Rectangle" class="cls-1" d="M30,9h0a3,3,0,0,1,3,3H27A3,3,0,0,1,30,9Z" />
        <path id="Combined-Shape-2" data-name="Combined-Shape" class="cls-1" d="M11.8,22.5a5,5,0,0,1,4.1-5.8,4.93,4.93,0,0,1,5.8,4.1l1.9-.3a.92.92,0,0,1,1.1.7l4.7,14.4a1,1,0,0,1-.6,1.3h-.1L10.8,40a1.1,1.1,0,0,1-1.2-.8v-.1L9.1,23.9a1,1,0,0,1,.8-1Zm7.9-1.4a3,3,0,0,0-5.9,1.1C15.7,21.8,17.7,21.5,19.7,21.1Z" />
      </g>
    </g>
  </g>
</svg>