<?xml version="1.0" encoding="utf-8"?>
<svg id="Layer_1" data-name="Layer 1" xmlns="http://www.w3.org/2000/svg" viewBox="0 0 48 48">
  <defs>
    <style>.cls-1{fill:#fff;}</style>
  </defs>
  <title>ic_sports&amp;amp;recreation</title>
  <path class="cls-1" d="M29.4,15v1.7c1.3-.1.5-.2,2.3.6.3.1.5.3.8.4.1,0,.1.1.1.2-.1.3-.1.6-.2.9H29.2a8.33,8.33,0,0,1-.4,1.5,12.41,12.41,0,0,1,2.7-.3h1c.1,0,.3.1.3.2a13.75,13.75,0,0,1,1.9,3v.3c-.5.9-1,1.8-1.4,2.7,0,.1-.2.2-.2.2a28.86,28.86,0,0,0-2.9.4.55.55,0,0,1-.5-.2,14,14,0,0,0-2.1-2.7.35.35,0,0,1-.1-.2l-.6,1.2a11.78,11.78,0,0,1,1.9,2.5v.2c-.3,1-.6,2-1,3a.22.22,0,0,1-.2.2,18.61,18.61,0,0,1-3.4.4,4.87,4.87,0,0,1-1.2-.1c-.1,0-.2-.1-.3-.1s-.1-.2-.2-.3a15.77,15.77,0,0,1-4.1,2.8,11.67,11.67,0,0,0,9.2,4.4A11.48,11.48,0,0,0,39,26.4,11.6,11.6,0,0,0,29.4,15ZM30,33.8l-.9,2.4c0,.1-.2.2-.3.2a9.87,9.87,0,0,1-4.2-.3c-.7-.2-1.4-.6-2.2-.9-.2-.1-.2-.2-.1-.3a17.23,17.23,0,0,1,.7-2.1c0-.2.1-.2.3-.2h1.1a16.37,16.37,0,0,0,3.8-.4c.1,0,.3,0,.3.1.5.4,1,.9,1.5,1.3C30,33.5,30.1,33.6,30,33.8Zm.6,2.1a.37.37,0,0,0,.1-.3c.2-.5.3-1,.5-1.5,0-.1.1-.2.2-.3a7.41,7.41,0,0,0,2.8-2.2c.1-.1.2-.2.4-.1.4.1.8.2,1.3.3A10.67,10.67,0,0,1,30.6,35.9Zm5.6-5.3-1.4-.3q-.15,0-.3-.3a17.42,17.42,0,0,1-.5-2.2v-.4A15.44,15.44,0,0,1,35.7,24c0-.1.2-.1.3-.1.3,0,.6.1.9.1a.22.22,0,0,1,.2.2,5.84,5.84,0,0,1,.3,2.1,12.67,12.67,0,0,1-.9,4Q36.5,30.75,36.2,30.6Z" />
  <path id="Combined-Shape" class="cls-1" d="M8.4,24a18.8,18.8,0,0,1,2.4-6.7A20.29,20.29,0,0,1,15.2,12c2.9,1.2,5,2.2,6.5,3a60.9,60.9,0,0,1,5.6,3.9,20,20,0,0,1-2.4,6.5,18.61,18.61,0,0,1-4.6,5.5A51.89,51.89,0,0,1,14.2,28,63.4,63.4,0,0,1,8.4,24Zm-.2,1.7a42,42,0,0,0,5.2,3.6,46.79,46.79,0,0,0,5.4,2.6c-3.4,2.1-6.6,2-7.8,1.3S8.1,29.7,8.2,25.7Zm8.4-14.8c3.5-2.3,6.8-2.2,8.1-1.5s3,3.5,2.8,7.7a54.85,54.85,0,0,0-5-3.5C21.2,12.9,19.2,12,16.6,10.9Zm-.9,4.7a.74.74,0,0,0-.9.1,17.83,17.83,0,0,0-2.1,2.7,11.32,11.32,0,0,0-1.3,3.2.74.74,0,0,0,.4.9h.1c.2.1.5-.1.6-.3A17.88,17.88,0,0,1,13.8,19a18.6,18.6,0,0,1,2.1-2.8.1.1,0,0,1,.1-.1A.47.47,0,0,0,15.7,15.6Z" />
</svg>