<?xml version="1.0" encoding="utf-8"?>
<svg id="Layer_1" data-name="Layer 1" xmlns="http://www.w3.org/2000/svg" viewBox="0 0 48 48">
  <defs>
    <style>.cls-1{fill:#fff;}</style>
  </defs>
  <title>ic_aerial</title>
  <g id="Symbols">
    <g id="Icons_normal_ic_aerial" data-name="Icons/normal/ic_aerial">
      <g id="Group-Copy">
        <path id="Combined-Shape" class="cls-1" d="M38.3,28.5A9.72,9.72,0,0,1,31.9,31H25.7A13.7,13.7,0,0,1,16,27a6.56,6.56,0,0,1-5-2.3L9,22.3A8.13,8.13,0,0,1,7,17V16a2,2,0,0,1,2-2,3.89,3.89,0,0,1,3.2,1.6l.8.9A6.68,6.68,0,0,0,18.2,19H25V15H18V13H35v2H28v4h1.1a11.88,11.88,0,0,1,8.4,3.5l.9.9.1.1A3.6,3.6,0,0,1,38.3,28.5ZM28.2,21H21l2.8,3H35C33.6,22.1,30.5,21,28.2,21Z" />
        <path id="Fill-1" class="cls-1" d="M41,30.8h0a1.18,1.18,0,0,0-1.7.3h0l-.3.4A3.46,3.46,0,0,1,36.2,33H17a.94.94,0,0,0-1,1h0a.94.94,0,0,0,1,1H36.7a5,5,0,0,0,3.8-1.7l.7-.8a1.26,1.26,0,0,0-.2-1.7Z" />
      </g>
    </g>
  </g>
</svg>