<?xml version="1.0" encoding="utf-8"?>
<svg id="Layer_1" data-name="Layer 1" xmlns="http://www.w3.org/2000/svg" viewBox="0 0 48 48">
  <defs>
    <style>.cls-1{fill:#fff;}</style>
  </defs>
  <title>ic_travel</title>
  <g id="Symbols">
    <g id="Icons_normal_ic_travel" data-name="Icons/normal/ic_travel">
      <path id="Combined-Shape" class="cls-1" d="M11,29H22V18H11Zm7.6,7h-4l-3.5,3.5a1,1,0,0,1-1.4-1.4L11.8,36H11a2,2,0,0,1-2-2V18a2,2,0,0,1,2-2H22a2,2,0,0,1,2,2V34a2,2,0,0,1-2,2h-.6l2.1,2.1a1,1,0,0,1-1.4,1.4Zm-6.1-2A1.5,1.5,0,1,0,11,32.5,1.54,1.54,0,0,0,12.5,34Zm8,0A1.5,1.5,0,1,0,19,32.5,1.54,1.54,0,0,0,20.5,34Z" />
      <path id="Combined-Shape-2" data-name="Combined-Shape" class="cls-1" d="M25.9,21.9V16.5l.8-.8L24.1,9.6a1.15,1.15,0,0,1,.5-1.4,1.06,1.06,0,0,1,1.4.2l4,5.3,5.7-1.4a4,4,0,0,1,4,2l-7.4,3.3,3.9,8.3,2.7-.6a1.87,1.87,0,0,1,2,1l-4.3,2.5-4.3,2.5a2.13,2.13,0,0,1,.3-2.4l1.7-1.8L29,19.7Z" />
    </g>
  </g>
</svg>