<svg xmlns="http://www.w3.org/2000/svg" xmlns:xlink="http://www.w3.org/1999/xlink" viewBox="0 0 2501.77 2555.82"><defs><style>.cls-1{fill:url(#linear-gradient);}.cls-2{fill:url(#linear-gradient-2);}.cls-3{fill:url(#linear-gradient-3);}.cls-4{fill:url(#linear-gradient-4);}.cls-5{fill:url(#linear-gradient-5);}.cls-6{fill:url(#linear-gradient-6);}.cls-7{fill:url(#linear-gradient-7);}.cls-8{fill:url(#linear-gradient-8);}.cls-9{fill:url(#linear-gradient-9);}.cls-10{fill:url(#linear-gradient-10);}.cls-11{fill:url(#linear-gradient-11);}.cls-12{fill:url(#linear-gradient-12);}.cls-13,.cls-22{fill:#bc2585;}.cls-14{fill:url(#linear-gradient-13);}.cls-15{fill:url(#linear-gradient-14);}.cls-16{fill:url(#linear-gradient-15);}.cls-17{fill:url(#linear-gradient-16);}.cls-18{fill:url(#linear-gradient-17);}.cls-19{fill:url(#linear-gradient-18);}.cls-20{fill:url(#linear-gradient-19);}.cls-21{fill:url(#linear-gradient-20);}.cls-22,.cls-23,.cls-24{opacity:0.9;}.cls-22,.cls-23{isolation:isolate;}.cls-23{fill:url(#linear-gradient-21);}.cls-25{fill:url(#linear-gradient-22);}.cls-26{fill:url(#linear-gradient-23);}</style><linearGradient id="linear-gradient" x1="254.67" y1="306.71" x2="-108.03" y2="314.63" gradientTransform="matrix(1, 0, 0, -1, 0, 2552.94)" gradientUnits="userSpaceOnUse"><stop offset="0" stop-color="#005ca9"/><stop offset="0.27" stop-color="#006ab5"/><stop offset="0.86" stop-color="#0089d1"/><stop offset="1" stop-color="#0090d7"/></linearGradient><linearGradient id="linear-gradient-2" x1="-18.16" y1="311.22" x2="325.31" y2="311.22" xlink:href="#linear-gradient"/><linearGradient id="linear-gradient-3" x1="1406.37" y1="48.73" x2="1403.48" y2="404.62" xlink:href="#linear-gradient"/><linearGradient id="linear-gradient-4" x1="816.09" y1="301.39" x2="831.94" y2="2.13" xlink:href="#linear-gradient"/><linearGradient id="linear-gradient-5" x1="744.27" y1="210.46" x2="736.34" y2="652.48" xlink:href="#linear-gradient"/><linearGradient id="linear-gradient-6" x1="387.41" y1="271.51" x2="387.41" y2="591.18" xlink:href="#linear-gradient"/><linearGradient id="linear-gradient-7" x1="581.07" y1="271.51" x2="581.07" y2="591.18" xlink:href="#linear-gradient"/><linearGradient id="linear-gradient-8" x1="1065.29" y1="307.19" x2="1065.29" y2="96.75" xlink:href="#linear-gradient"/><linearGradient id="linear-gradient-9" x1="1076.6" y1="405.49" x2="1071.49" y2="570.42" xlink:href="#linear-gradient"/><linearGradient id="linear-gradient-10" x1="1258.98" y1="307.14" x2="1258.98" y2="90.53" xlink:href="#linear-gradient"/><linearGradient id="linear-gradient-11" x1="545.34" y1="193.05" x2="278.41" y2="235.05" gradientTransform="matrix(1, 0, 0, -1, 0, 2552.94)" gradientUnits="userSpaceOnUse"><stop offset="0" stop-color="#76186f"/><stop offset="0.05" stop-color="#7a1971"/><stop offset="0.46" stop-color="#9c1f7b"/><stop offset="0.79" stop-color="#b32383"/><stop offset="1" stop-color="#bc2585"/></linearGradient><linearGradient id="linear-gradient-12" x1="642.93" y1="401.9" x2="912.69" y2="411.04" xlink:href="#linear-gradient-11"/><linearGradient id="linear-gradient-13" x1="796.85" y1="215.18" x2="850.16" y2="215.18" xlink:href="#linear-gradient-11"/><linearGradient id="linear-gradient-14" x1="491.93" y1="23.75" x2="545.19" y2="23.75" xlink:href="#linear-gradient-11"/><linearGradient id="linear-gradient-15" x1="420.44" y1="23.75" x2="473.73" y2="23.75" xlink:href="#linear-gradient-11"/><linearGradient id="linear-gradient-16" x1="1204.02" y1="332.88" x2="1006.6" y2="338.37" xlink:href="#linear-gradient-11"/><linearGradient id="linear-gradient-17" x1="1654.83" y1="2777.53" x2="1654.83" y2="2291.3" gradientTransform="translate(0 -292.49)" gradientUnits="userSpaceOnUse"><stop offset="0.55" stop-color="#76186f"/><stop offset="0.59" stop-color="#7d1972"/><stop offset="0.86" stop-color="#a92280"/><stop offset="1" stop-color="#bc2585"/></linearGradient><linearGradient id="linear-gradient-18" x1="1792.71" y1="213.51" x2="1516.97" y2="213.51" gradientTransform="matrix(1, 0, 0, -1, 0, 2552.94)" gradientUnits="userSpaceOnUse"><stop offset="0.31" stop-color="#76186f"/><stop offset="0.47" stop-color="#8d1c76"/><stop offset="0.67" stop-color="#a6217e"/><stop offset="0.86" stop-color="#b62483"/><stop offset="1" stop-color="#bc2585"/></linearGradient><linearGradient id="linear-gradient-19" x1="1846.59" y1="421.61" x2="2145.45" y2="122.75" gradientTransform="matrix(1, 0, 0, -1, 0, 2552.94)" gradientUnits="userSpaceOnUse"><stop offset="0" stop-color="#76186f"/><stop offset="0.48" stop-color="#bb2585"/><stop offset="0.48" stop-color="#bb2585"/><stop offset="0.82" stop-color="#911d78"/><stop offset="1" stop-color="#821a73"/></linearGradient><linearGradient id="linear-gradient-20" x1="2538.13" y1="420.98" x2="2159.59" y2="202.43" gradientTransform="matrix(1, 0, 0, -1, 0, 2552.94)" gradientUnits="userSpaceOnUse"><stop offset="0.41" stop-color="#76186f"/><stop offset="0.59" stop-color="#8e1c77"/><stop offset="0.86" stop-color="#af2281"/><stop offset="1" stop-color="#bc2585"/></linearGradient><linearGradient id="linear-gradient-21" x1="1448.49" y1="667.24" x2="1448.49" y2="1817.22" xlink:href="#linear-gradient"/><linearGradient id="linear-gradient-22" x1="897.7" y1="1300.12" x2="1178.48" y2="1300.12" xlink:href="#linear-gradient"/><linearGradient id="linear-gradient-23" x1="622.45" y1="1199.78" x2="859.56" y2="1199.78" xlink:href="#linear-gradient"/></defs><title>logo_dubai360</title><g id="Layer_2" data-name="Layer 2"><g id="Layer_1-2" data-name="Layer 1"><path class="cls-1" d="M203.4,2338.57h-9.67a48.47,48.47,0,0,1-48.4,48.43H96.87V1999.62H0v484.21H155a48.42,48.42,0,0,0,48.4-48.45v-96.81Z"/><path class="cls-2" d="M193.73,2435.38a48.45,48.45,0,0,1-48.41,48.45h48.41A96.83,96.83,0,0,0,290.57,2387V2096.47a96.85,96.85,0,0,0-96.84-96.86H0V2048a48.46,48.46,0,0,0,48.46,48.45h96.86a48.43,48.43,0,0,1,48.41,48.43v290.48Z"/><path class="cls-3" d="M1355.81,2483.83V2048a48.45,48.45,0,0,1,48.43-48.41h48.42v435.76a48.43,48.43,0,0,1-48.42,48.45Z"/><path class="cls-4" d="M941.32,2263a165.76,165.76,0,0,1-80.79,44.76,48.42,48.42,0,1,1-85.77,30.82v-26.66H677.92v123.47a48.43,48.43,0,0,0,48.43,48.45h96.86a145.26,145.26,0,0,0,121.71-224.55C943.72,2260.56,942.54,2261.8,941.32,2263Z"/><path class="cls-5" d="M774.76,2144.9a48.34,48.34,0,0,1,26.65-43.25v-102H677.92v171.9h96.85V2144.9Z"/><path class="cls-6" d="M435.84,2190.91V1999.62H387.4A48.43,48.43,0,0,0,339,2048v123.5H387.4A70,70,0,0,1,435.84,2190.91Z"/><path class="cls-7" d="M629.49,2171.52V2048a48.45,48.45,0,0,0-48.41-48.41H532.66V2190.9a70,70,0,0,1,48.42-19.38Z"/><path class="cls-8" d="M1016.88,2483.83h48.39a48.42,48.42,0,0,0,48.44-48.45V2311.91h-96.83Z"/><path class="cls-9" d="M1113.71,2171.55V2118.2h0V2048a70,70,0,0,1,19.38-48.41h-19.38a96.85,96.85,0,0,0-96.83,96.86v94.43a70,70,0,0,1,48.39-19.38Z"/><path class="cls-10" d="M1212.3,2311.91h-1.76v123.47a48.43,48.43,0,0,0,48.4,48.45h48.48V2261.77A118.62,118.62,0,0,1,1212.3,2311.91Z"/><path class="cls-11" d="M542.37,2435.38V2387H484.24a48.44,48.44,0,0,1-48.4-48.42v-96.86a48.47,48.47,0,0,0-48.44-48.44H339V2387a96.83,96.83,0,0,0,96.86,96.83H494A48.45,48.45,0,0,0,542.37,2435.38Z"/><path class="cls-12" d="M823.2,1999.62v96.86a48.41,48.41,0,0,1,0,96.82H668.26a48.46,48.46,0,0,0-48.42,48.44v48.42H823.2a145.27,145.27,0,0,0,0-290.54Z"/><path class="cls-13" d="M677.89,2193.29H581.08a48.46,48.46,0,0,0-48.42,48.44V2387h0v48.38a48.43,48.43,0,0,1-48.43,48.45h48.43A96.82,96.82,0,0,0,629.49,2387V2241.72A48.48,48.48,0,0,1,677.89,2193.29Z"/><path class="cls-14" d="M796.85,2337.75a26.66,26.66,0,1,0,26.66-26.62H796.85Z"/><path class="cls-15" d="M491.93,2529.16a26.63,26.63,0,1,0,26.62-26.6H491.93Z"/><path class="cls-16" d="M420.44,2529.16a26.65,26.65,0,1,0,26.68-26.6H420.44Z"/><path class="cls-13" d="M1016.88,2241.73a48.45,48.45,0,0,1,48.39-48.44l96.87,0a48.4,48.4,0,1,0,0-96.8l-26.68-.08V2048a48.45,48.45,0,0,1,48.43-48.41h26.66a96.87,96.87,0,0,1,96.88,96.84v96.84a96.85,96.85,0,0,1-96.88,96.86H1016.89v-48.42Z"/><path class="cls-17" d="M1162.14,2290.15a48.38,48.38,0,0,0,48.41-48.42V2145a48.4,48.4,0,0,1-48.41,48.38l-96.87,0a48.45,48.45,0,0,0-48.39,48.44v48.42Z"/><path class="cls-13" d="M1987.94,2095.74l26.69-.08H2070a48.43,48.43,0,0,0,48.4-48.42v-48.41H1939.53a96.37,96.37,0,0,0-62.9,23.29c-12.25,9.57-22.36,22.89-28.27,41.1a96.39,96.39,0,0,0-5.7,32.43v48.8s14.9-48.76,77.1-48.76Z"/><path class="cls-13" d="M2142.77,2256.84a90.59,90.59,0,0,0-6.6-15.15c-.19-.36-.32-.79-.51-1.15-.17-.21-.36-.39-.55-.61a82.25,82.25,0,0,0-20.62-24.22,96.48,96.48,0,0,0-62.9-23.29h-37c-4.29,0-8.14,0-11.41,0h-16.41a48.35,48.35,0,0,1,1.18-96.68l26.69-.08H2070a48.43,48.43,0,0,0,48.4-48.42v-48.41H1939.53a96.37,96.37,0,0,0-62.9,23.29c-12.25,9.57-22.36,22.89-28.27,41.1a96.39,96.39,0,0,0-5.7,32.43v96.84c0,11.57.51,62.29.2,93.81,0,1.22-.2,2.42-.2,3.66v96.82a96.26,96.26,0,0,0,5.7,32.43c5.91,18.23,16,31.55,28.27,41.12a96.33,96.33,0,0,0,61.42,23.21l.12.08h65c3.26,0,7.12,0,11.41,0h37a96.48,96.48,0,0,0,62.9-23.29,81.83,81.83,0,0,0,20.62-24.22c.19-.21.38-.39.55-.61s.32-.79.51-1.15a90.59,90.59,0,0,0,6.6-15.15,96.34,96.34,0,0,0,5.69-32.43v-97.53A96.72,96.72,0,0,0,2142.77,2256.84Zm-139.6,129.29h-21.38a48.27,48.27,0,0,1-42.28-47.8V2290h63.8a48.09,48.09,0,1,1-.14,96.18Z"/><path class="cls-18" d="M1787,2420.64c-5.92,18.22-16,31.54-28.27,41.11a96.43,96.43,0,0,1-62.91,23.29H1517v-48.41a48.43,48.43,0,0,1,48.4-48.43h55.37l26.69-.08a48.41,48.41,0,1,0,0-96.81l-43.54.05a48.45,48.45,0,0,1-48.39-48.45V2194.5h48.39l43.54.18c26.75,0,48.41-23.82,48.41-50.52a48.41,48.41,0,0,0-48.41-48.43l-26.69-.08h-55.37a48.43,48.43,0,0,1-48.4-48.42v-48.41h178.86a96.38,96.38,0,0,1,62.91,23.29c12.24,9.57,22.35,22.89,28.27,41.1a96.38,96.38,0,0,1,5.69,32.43v96.84a96.68,96.68,0,0,1-7.43,37.22,99.62,99.62,0,0,1-5.37,12.22,98.29,98.29,0,0,1,5.37,12.22,96.42,96.42,0,0,1,7.43,37.22v96.83A96.38,96.38,0,0,1,1787,2420.64Z"/><path class="cls-19" d="M1787,2420.64c-5.92,18.22-16,31.54-28.27,41.11a96.43,96.43,0,0,1-62.91,23.29H1517v-48.41a48.43,48.43,0,0,1,48.4-48.43h55.37l26.69-.08a48.41,48.41,0,1,0,0-96.81l-43.54.05a48.45,48.45,0,0,1-48.39-48.45V2194.5h48.39l43.54.18c11.67,0,27.82-.86,49.83-.86,53.27,0,75.76,39,82.65,48.12a98.29,98.29,0,0,1,5.37,12.22,96.42,96.42,0,0,1,7.43,37.22v96.83A96.61,96.61,0,0,1,1787,2420.64Z"/><path class="cls-13" d="M1787,2420.64c-5.92,18.22-16,31.54-28.27,41.11a96.43,96.43,0,0,1-62.91,23.29h-37s36.84-18.29,37.19-65c.15-19.71-.16-68.34-.16-80.37a48.41,48.41,0,0,0-48.41-48.39l-43.54,0a48.45,48.45,0,0,1-48.39-48.45v-48.41h48.39l43.54.18c11.67,0,28.49-.2,50.49-.2,53.29,0,75.11,38.29,82,47.45a98.29,98.29,0,0,1,5.37,12.22,96.42,96.42,0,0,1,7.43,37.22v96.83A96.35,96.35,0,0,1,1787,2420.64Z"/><path class="cls-20" d="M2142.77,2256.84a90.59,90.59,0,0,0-6.6-15.15c-.19-.36-.32-.79-.51-1.15-.17-.21-.36-.39-.55-.61a82.25,82.25,0,0,0-20.62-24.22,96.48,96.48,0,0,0-62.9-23.29h-37c-4.29,0-8.14,0-11.41,0h-16.41a48.35,48.35,0,0,1,1.18-96.68l-68.19,0c-62.2,0-77.1,48.76-77.1,48.76v48c0,8.44.27,15.75.29,43.17,0,0-.29,54,70.55,54,34.4,0,85.48.23,85.48.23h4.37a48.37,48.37,0,0,1,48.22,48.09c-.12,21.62.4,72.8.4,84.25,0,57-37.37,61.37-37.37,61.37h37a96.48,96.48,0,0,0,62.9-23.29,81.83,81.83,0,0,0,20.62-24.22c.19-.21.38-.39.55-.61s.32-.79.51-1.15a90.59,90.59,0,0,0,6.6-15.15,96.34,96.34,0,0,0,5.69-32.43v-97.53A96.49,96.49,0,0,0,2142.77,2256.84Z"/><path class="cls-21" d="M2496.09,2063.24c-5.92-18.21-16-31.54-28.27-41.1a96.53,96.53,0,0,0-61.43-23.23l-.13-.06H2292.84a96.41,96.41,0,0,0-62.92,23.29c-.11.09-.2.2-.3.27a80.68,80.68,0,0,0-6.77,6.1c-1.17,1.15-2.3,2.39-3.43,3.63-.72.83-1.41,1.7-2.1,2.55a83.16,83.16,0,0,0-8.05,11.69c-.17.2-.35.37-.51.59s-.33.78-.51,1.13c-.91,1.69-1.76,3.44-2.59,5.23a87.23,87.23,0,0,0-4,9.72,2,2,0,0,1-.07.19,96.63,96.63,0,0,0-5.69,32.43v5.75h0v79.95h0v11.12h0v.76c0,12.74.49,62.11.19,93-.05,1.22-.19,2.42-.19,3.66v96.82a96.5,96.5,0,0,0,5.69,32.43c5.92,18.23,16,31.55,28.27,41.12a96.34,96.34,0,0,0,61.43,23.21l.12.08h113.43a96.55,96.55,0,0,0,62.92-23.29l.29-.28a80.55,80.55,0,0,0,6.77-6.09c1.17-1.17,2.3-2.39,3.44-3.63.7-.83,1.39-1.7,2.09-2.56a82.17,82.17,0,0,0,8-11.68c.19-.2.37-.39.53-.59.19-.36.33-.78.5-1.14.92-1.69,1.76-3.44,2.59-5.23a82.3,82.3,0,0,0,3.95-9.73l.09-.18a96.64,96.64,0,0,0,5.68-32.44h0v-85.68h0V2290h0v-.75c0-12.74-.49-62.12-.18-93.06,0-1.22.18-2.41.18-3.66v-96.82A96.73,96.73,0,0,0,2496.09,2063.24Zm-91.23,81.26V2338a48.38,48.38,0,0,1-48.37,48.1h-21.38a48.26,48.26,0,0,1-42.27-47.8c0-.1,0-.19,0-.28h0V2144.18h.06a48.36,48.36,0,0,1,48.34-47.82l21.38,0a48.24,48.24,0,0,1,42.28,47.79C2404.9,2144.28,2404.86,2144.38,2404.86,2144.5Z"/><path class="cls-13" d="M2404.92,2434.9a48.45,48.45,0,0,1-48.41,48.46h48.41a96.83,96.83,0,0,0,96.84-96.85V2096a96.85,96.85,0,0,0-96.84-96.86H2293.26s-56.27-3.77-86.6,52.18c-5.49,10.12,12.08,44.69,63.68,44.38,29.63-.17,64.86.29,71.39.29h14.79a48.43,48.43,0,0,1,48.41,48.43V2434.9Z"/><path class="cls-22" d="M828.86,1791c-1.08,11.56-3.86,50.68-6.74,94.71h370.14c-33.34-112.84-81.88-250.82-131.44-300,0,0-4.26-70.88,6.37-104.38s-4-168.46-3.43-178.15-53.36,77.18-68.53,90.88-84.37-212.36-131.53-237.17c0,0-3.29,194.79-14.22,233.12S725.15,1540.93,741,1590.66,831.58,1761.93,828.86,1791Z"/><path class="cls-23" d="M1666,1885.7V1162.93H1638V919.19h-35.88s14-183.47-153.65-183.47-153.58,183.47-153.58,183.47H1259v243.74h-28V1885.7Z"/><g class="cls-24"><polygon class="cls-25" points="918.01 1166.74 897.7 1885.7 1178.48 1885.7 1159.14 954.21 951.82 810.33 951.82 737.23 938.19 732.86 938.19 619.94 918.01 619.94 918.01 1035.09 954.01 1028.54 954.01 1154.36 918.01 1166.74"/></g><g class="cls-24"><polygon class="cls-13" points="1423.56 1885.7 1423.56 1780.47 1392.27 1780.47 1392.27 1547.15 1349.05 1539.61 1349.05 1257.92 1312.72 1246.3 1312.72 923.4 1287.12 915.4 1287.12 643.34 1276.6 633.32 1276.6 332.02 1247.28 314.84 1247.28 185.82 1233.92 174.34 1233.92 0 1218.41 0 1218.41 108.99 1205.3 119.6 1205.3 174.93 1193.05 185.97 1193.05 316.07 1161.63 335.14 1161.63 632.48 1148.92 643.17 1148.92 1033.26 1127.1 1040.43 1127.1 1343.12 1092.5 1347.7 1092.5 1637.59 1062.73 1637.59 1062.73 1821.43 1025.44 1821.43 1025.44 1885.7 1423.56 1885.7"/></g><g class="cls-24"><path class="cls-13" d="M1517.8,1152.85v3.44l77.13,58.86-6.84,670.55h573.62c27.57-391.06-208.38-713.14-208.38-713.14l11.58-33.81,5.54,6.11,23.11-34.78c56.33-4.71,35.71-26.31,35.71-26.31-80-23.94-129.75,6.12-129.75,6.12v7.5l-29.19-7.5c-75.94-136.23-237.52-298.79-237.52-298.79V569.37l-20.46,13.48V774.21h-5.7L1608,1125.6c-76.47-6.58-93.89,11-93.89,11l11.06,16.29Zm289-62.33-137.47,21.92-10.07-249.91C1719,917,1806.82,1090.52,1806.82,1090.52Z"/></g><g class="cls-24"><path class="cls-13" d="M729.45,1885.7c-2.48-63.17-6.88-171.51-10-226.83-5.65-100.1-77.1-142.55-93.88-197.25-17-55.39-4.17-245.4-4.17-245.4s-26.74,25.54-79.31,130.14c-39.23,78-41,149.71-41,149.71s-2.71,3.41-5.43,1.68c-40.72-26.1-45.56-128.3-56.64-124.07-3.89,1.5-15.39,105.22-19,143.78-5.38,56.81-9.25,217.27-15.63,226-41.12,56.3-57,107.1-63,142.22H729.45Z"/></g><g class="cls-24"><polygon class="cls-26" points="859.56 1885.7 842.55 1282.85 812.09 1272.39 812.09 1166.01 842.55 1171.56 842.55 820.61 825.49 820.61 825.49 916.07 813.95 919.76 813.95 981.55 638.7 1103.18 622.45 1885.7 859.56 1885.7"/></g></g></g></svg>