<?xml version="1.0" encoding="UTF-8" standalone="no"?>
<!-- Generator: Adobe Illustrator 23.0.1, SVG Export Plug-In . SVG Version: 6.00 Build 0)  -->

<svg
   xmlns:dc="http://purl.org/dc/elements/1.1/"
   xmlns:cc="http://creativecommons.org/ns#"
   xmlns:rdf="http://www.w3.org/1999/02/22-rdf-syntax-ns#"
   xmlns:svg="http://www.w3.org/2000/svg"
   xmlns="http://www.w3.org/2000/svg"
   xmlns:sodipodi="http://sodipodi.sourceforge.net/DTD/sodipodi-0.dtd"
   xmlns:inkscape="http://www.inkscape.org/namespaces/inkscape"
   version="1.1"
   id="Слой_1"
   x="0px"
   y="0px"
   viewBox="0 0 276 287.99999"
   xml:space="preserve"
   sodipodi:docname="sound-off.svg"
   width="276"
   height="288"
   inkscape:version="0.92.4 (5da689c313, 2019-01-14)"><metadata
   id="metadata15"><rdf:RDF><cc:Work
       rdf:about=""><dc:format>image/svg+xml</dc:format><dc:type
         rdf:resource="http://purl.org/dc/dcmitype/StillImage" /><dc:title></dc:title></cc:Work></rdf:RDF></metadata><defs
   id="defs13" /><sodipodi:namedview
   pagecolor="#ffffff"
   bordercolor="#666666"
   borderopacity="1"
   objecttolerance="10"
   gridtolerance="10"
   guidetolerance="10"
   inkscape:pageopacity="0"
   inkscape:pageshadow="2"
   inkscape:window-width="1920"
   inkscape:window-height="1013"
   id="namedview11"
   showgrid="false"
   inkscape:zoom="1.4253643"
   inkscape:cx="143.21823"
   inkscape:cy="146.7925"
   inkscape:window-x="0"
   inkscape:window-y="0"
   inkscape:window-maximized="1"
   inkscape:current-layer="Слой_1" />
<style
   type="text/css"
   id="style2">
	.st0{fill:#027AFF;}
</style>
<path
   class="st0"
   d="m 19.105084,16.815962 c 10.99,11.039999 240.860006,241.689998 252.460006,253.419998 11.6,11.73 -0.66,25.32 -12.16,13.76 -11.5,-11.56 -246.030006,-247.429999 -255.6600055,-257.259999 -9.63,-9.829999 4.36,-20.9599994 15.3599995,-9.919999 z"
   id="path4"
   inkscape:connector-curvature="0"
   style="fill:#027aff" />
<path
   class="st0"
   d="m 116.85509,197.82596 66.72,74.02 c 10.12,8.5 19.15,7.54 27.02,-3.57 v -8.71 L 37.165084,81.265961 c 0,0 -11.03,4.65 -11.76,13.49 -0.73,8.839999 -1.56,82.419999 -1.56,82.419999 0,0 4.77,20.25 21.62,20.45 16.84,0.2 71.390006,0.2 71.390006,0.2 z"
   id="path6"
   inkscape:connector-curvature="0"
   style="fill:#027aff" />
<path
   class="st0"
   d="m 111.10509,79.545961 75.23,-74.6399994 c 8.53,-6.0400003 16.88,-5.72000027 25.08,0 V 183.91596 l -107.2,-104.379999 z"
   id="path8"
   inkscape:connector-curvature="0"
   style="fill:#027aff" />
</svg>