<?xml version="1.0" encoding="utf-8"?>
<!-- Generator: Adobe Illustrator 23.0.1, SVG Export Plug-In . SVG Version: 6.00 Build 0)  -->
<svg version="1.1" id="Слой_1" xmlns="http://www.w3.org/2000/svg" xmlns:xlink="http://www.w3.org/1999/xlink" x="0px" y="0px"
	 viewBox="0 0 841.89 595.28" style="enable-background:new 0 0 841.89 595.28;" xml:space="preserve">
<style type="text/css">
	.st0{fill:#027AFF;}
</style>
<path class="st0" d="M301.9,169.82c10.99,11.04,240.86,241.69,252.46,253.42s-0.66,25.32-12.16,13.76S296.17,189.57,286.54,179.74
	S290.9,158.78,301.9,169.82z"/>
<path class="st0" d="M399.65,350.83l66.72,74.02c10.12,8.5,19.15,7.54,27.02-3.57v-8.71L319.96,234.27c0,0-11.03,4.65-11.76,13.49
	c-0.73,8.84-1.56,82.42-1.56,82.42s4.77,20.25,21.62,20.45C345.1,350.83,399.65,350.83,399.65,350.83z"/>
<path class="st0" d="M393.9,232.55l75.23-74.64c8.53-6.04,16.88-5.72,25.08,0l0,179.01l-107.2-104.38L393.9,232.55z"/>
</svg>
